<?xml version="1.0" encoding="UTF-8" standalone="no"?>
<!DOCTYPE svg PUBLIC "-//W3C//DTD SVG 1.1//EN" "http://www.w3.org/Graphics/SVG/1.1/DTD/svg11.dtd">
<svg xmlns="http://www.w3.org/2000/svg" version="1.1" viewBox="0 0 300 200" width="300.0pt" height="200.0pt">
<path d="M 0.00 0.00 L 300.00 0.00 L 300.00 200.00 L 0.00 200.00 L 0.00 0.00 Z" fill="#353a40" />
<path d="M 152.76 23.66 C 153.94 23.62 155.13 23.70 156.30 23.76 C 156.99 26.98 157.39 30.73 160.22 32.87 C 162.23 34.74 165.65 34.80 168.25 35.54 C 168.23 36.78 168.18 38.02 168.10 39.24 C 165.15 39.85 161.71 40.26 159.50 42.49 C 157.24 44.80 156.92 47.60 156.41 50.64 C 155.08 50.74 153.76 50.84 152.43 50.93 C 151.74 48.07 151.74 45.28 149.66 43.07 C 147.37 40.19 144.04 39.97 140.66 39.37 C 140.64 38.11 140.62 36.86 140.63 35.61 C 144.06 34.51 147.17 34.63 149.70 31.66 C 152.14 29.29 151.18 26.28 152.76 23.66 Z" fill="#fdc107" />
<path d="M 154.31 34.40 C 155.46 35.29 156.56 36.25 157.68 37.19 C 156.39 38.47 155.17 39.79 154.08 41.24 C 153.45 39.17 151.87 38.81 150.69 37.42 C 151.83 36.35 153.10 35.39 154.31 34.40 Z" fill="#353a40" />
<path d="M 90.68 53.51 C 91.86 53.41 93.05 53.44 94.23 53.43 C 94.90 56.18 95.08 58.66 97.38 60.62 C 99.12 62.45 101.22 62.47 103.58 62.67 C 103.71 64.04 104.03 65.24 103.64 66.60 C 101.72 67.69 98.66 67.44 97.03 69.05 C 95.27 70.62 94.97 73.67 94.47 75.85 C 92.56 76.22 91.69 76.25 89.96 75.26 C 89.62 72.94 89.89 70.60 87.91 68.96 C 86.21 67.27 83.72 67.47 81.51 67.20 C 81.42 65.70 81.36 64.20 81.33 62.70 C 83.67 62.26 85.81 62.27 87.67 60.57 C 89.72 59.01 89.66 55.86 90.68 53.51 Z" fill="#fdc107" />
<path d="M 214.70 53.48 C 215.85 53.42 217.02 53.47 218.17 53.50 C 218.86 56.34 219.07 58.86 221.52 60.78 C 223.30 62.55 225.33 62.42 227.65 62.66 C 227.64 64.17 227.55 65.67 227.39 67.17 C 225.21 67.40 222.57 67.29 220.96 69.00 C 219.07 70.91 218.80 73.66 218.24 76.16 C 217.07 76.19 215.89 76.23 214.71 76.26 C 213.90 73.80 213.40 70.28 211.38 68.54 C 209.31 67.52 206.91 67.27 204.77 66.35 C 204.78 65.17 204.79 63.99 204.82 62.81 C 207.25 62.38 209.66 62.35 211.58 60.58 C 213.96 58.63 213.44 56.00 214.70 53.48 Z" fill="#fdc107" />
<path d="M 126.00 62.47 C 146.00 62.48 166.02 62.48 186.02 62.46 C 189.39 62.32 192.67 63.55 194.99 66.02 C 197.09 68.34 197.91 71.09 198.91 73.98 C 201.20 80.98 203.97 87.82 206.23 94.83 C 206.61 96.06 207.22 97.21 208.04 98.29 C 208.66 96.35 209.20 94.39 209.72 92.41 C 214.83 92.27 220.21 91.78 225.25 92.69 C 225.37 96.12 225.53 99.58 225.39 103.01 C 225.37 104.16 225.20 105.48 223.79 105.60 C 219.81 105.98 215.75 105.62 211.75 105.72 C 214.00 110.20 217.51 113.64 219.87 118.06 C 220.79 119.76 220.62 122.12 220.70 124.00 C 220.62 132.67 220.76 141.34 220.64 150.00 C 220.67 153.97 218.04 155.71 216.29 158.86 C 216.05 161.81 216.26 164.81 216.26 167.77 C 208.60 168.14 200.90 167.77 193.22 167.87 C 193.22 165.42 193.22 162.97 193.20 160.52 C 167.22 160.57 141.23 160.63 115.26 160.49 C 115.22 162.90 115.16 165.30 115.05 167.71 C 107.48 167.70 99.91 167.56 92.34 167.72 C 92.26 164.75 92.25 161.79 92.32 158.82 C 90.07 156.05 87.77 153.88 87.67 150.04 C 87.45 142.04 87.67 134.01 87.56 126.00 C 87.62 122.83 87.27 119.81 89.02 116.99 C 91.43 113.09 94.40 109.56 96.88 105.70 C 92.39 105.71 87.91 105.83 83.42 105.57 C 82.98 101.17 83.06 96.82 83.37 92.41 C 88.38 92.09 93.37 92.18 98.38 92.29 C 99.17 94.64 99.89 97.00 100.43 99.42 C 103.49 90.28 106.89 81.26 109.98 72.14 C 111.13 68.72 112.74 65.67 116.07 63.93 C 119.21 61.95 122.44 62.57 126.00 62.47 Z" fill="#fdc107" />
<path d="M 216.74 61.97 C 217.50 62.82 218.26 63.66 219.03 64.49 C 218.34 65.38 217.51 67.22 216.14 66.85 C 215.34 66.26 214.58 65.63 213.86 64.95 C 214.61 63.56 215.40 62.79 216.74 61.97 Z" fill="#353a40" />
<path d="M 94.81 64.39 C 94.40 65.10 93.96 65.78 93.47 66.43 C 91.61 67.09 91.20 65.35 90.01 64.33 C 92.44 62.99 92.45 62.77 94.81 64.39 Z" fill="#353a40" />
<path d="M 121.02 67.20 C 141.97 66.98 163.03 67.19 184.00 67.09 C 186.10 67.19 188.90 66.93 190.61 68.35 C 193.05 70.02 193.77 73.64 194.75 76.27 C 197.65 84.44 200.40 92.68 203.62 100.73 C 198.78 101.99 193.63 100.71 188.65 101.63 C 188.65 102.86 188.66 104.10 188.69 105.33 C 194.47 106.95 200.41 105.38 206.11 106.53 C 208.31 109.13 210.10 112.07 212.17 114.79 C 213.90 117.37 216.15 119.67 216.12 122.95 C 216.23 130.87 216.22 138.81 216.07 146.73 C 203.13 146.78 190.19 146.65 177.25 146.78 C 176.97 140.89 177.49 134.91 176.90 129.06 C 176.04 123.26 170.75 119.29 165.00 119.50 C 157.33 119.56 149.65 119.42 141.99 119.56 C 136.16 119.57 130.82 125.14 131.24 131.00 C 131.18 136.25 131.25 141.49 131.26 146.74 C 118.28 146.71 105.29 146.74 92.31 146.73 C 92.41 137.96 92.02 129.07 92.49 120.34 C 95.47 115.21 99.25 110.40 102.84 105.68 C 127.22 105.83 151.61 105.68 176.00 105.75 C 178.56 105.77 181.12 105.68 183.67 105.55 C 183.67 104.19 183.66 102.83 183.66 101.47 C 157.42 101.02 131.15 101.38 104.90 101.28 C 107.62 91.62 111.56 82.30 114.71 72.78 C 115.67 69.80 117.63 67.25 121.02 67.20 Z" fill="#353a40" />
<path d="M 121.99 69.35 C 143.27 69.40 164.76 69.35 186.01 69.38 C 188.84 69.34 190.12 70.39 191.08 73.00 C 193.82 80.66 196.57 88.34 199.24 96.02 C 199.68 96.87 199.47 97.70 198.61 98.52 C 196.44 98.86 194.18 98.79 192.00 98.80 C 164.44 98.65 136.86 98.94 109.31 98.65 C 109.07 96.57 109.21 94.95 109.97 93.01 C 112.40 86.39 114.79 79.76 117.07 73.09 C 117.83 70.75 119.38 69.16 121.99 69.35 Z" fill="#fdc107" />
<path d="M 121.97 74.54 C 143.34 74.22 165.12 74.45 186.53 74.43 C 188.36 81.14 191.75 87.46 193.02 94.28 C 167.03 94.17 141.03 94.23 115.04 94.26 C 115.87 89.98 117.88 86.23 119.13 82.05 C 120.06 79.59 120.64 76.80 121.97 74.54 Z" fill="#353a40" />
<path d="M 87.62 96.64 C 90.17 96.67 92.71 96.68 95.26 96.76 C 95.47 98.28 95.68 99.80 95.90 101.31 C 93.16 101.30 90.42 101.29 87.68 101.32 C 87.66 99.76 87.64 98.20 87.62 96.64 Z" fill="#353a40" />
<path d="M 213.53 96.57 C 215.87 96.65 218.22 96.66 220.56 96.65 C 220.57 98.20 220.56 99.76 220.54 101.31 C 217.76 101.29 214.98 101.30 212.20 101.31 C 212.57 99.71 213.00 98.13 213.53 96.57 Z" fill="#353a40" />
<path d="M 107.44 124.56 C 113.01 123.87 119.96 123.40 124.21 127.81 C 126.99 130.00 127.21 133.77 125.86 136.81 C 123.08 140.77 117.70 142.61 113.00 142.46 C 108.45 142.41 103.31 141.28 100.37 137.49 C 98.74 135.78 99.00 132.57 99.46 130.42 C 100.64 127.31 104.33 125.22 107.44 124.56 Z" fill="#fdc107" />
<path d="M 141.01 124.38 C 144.93 123.79 149.04 124.09 153.00 124.04 C 157.63 124.11 162.31 123.84 166.92 124.27 C 169.45 124.64 170.90 126.53 172.11 128.58 C 160.03 128.70 147.85 128.94 135.79 128.45 C 137.43 126.78 138.49 124.67 141.01 124.38 Z" fill="#353a40" />
<path d="M 188.16 125.08 C 191.57 123.90 195.52 124.04 199.07 124.27 C 202.94 124.53 207.07 126.82 208.79 130.39 C 210.37 133.95 208.57 137.80 205.42 139.76 C 199.66 143.43 191.40 143.37 185.57 139.88 C 182.23 137.96 180.66 133.84 182.07 130.21 C 183.44 127.92 185.68 126.05 188.16 125.08 Z" fill="#fdc107" />
<path d="M 117.08 129.44 C 119.46 129.95 122.08 131.29 121.67 134.17 C 118.80 137.58 114.05 137.82 109.94 137.33 C 106.95 136.79 105.06 135.60 103.33 133.11 C 106.61 128.46 112.06 128.78 117.08 129.44 Z" fill="#353a40" />
<path d="M 204.90 132.95 C 203.43 135.14 201.70 136.64 199.10 137.26 C 194.44 137.90 189.91 137.82 186.56 134.07 C 185.88 132.44 187.44 131.45 188.54 130.58 C 193.56 127.68 201.13 128.21 204.90 132.95 Z" fill="#353a40" />
<path d="M 136.22 133.45 C 141.79 133.08 147.42 133.37 153.00 133.27 C 159.45 133.41 165.98 132.94 172.41 133.60 C 172.40 134.87 172.39 136.13 172.39 137.39 C 160.16 137.31 147.93 137.39 135.70 137.35 C 135.83 136.04 136.00 134.74 136.22 133.45 Z" fill="#353a40" />
<path d="M 135.89 142.36 C 148.08 142.46 160.26 142.31 172.45 142.45 C 172.47 143.87 172.49 145.28 172.51 146.69 C 160.25 146.78 147.98 146.69 135.72 146.74 C 135.77 145.28 135.83 143.82 135.89 142.36 Z" fill="#353a40" />
<path d="M 92.16 151.63 C 94.78 151.51 97.38 151.45 100.00 151.47 C 138.72 151.58 177.46 151.34 216.18 151.58 C 214.65 153.04 213.14 155.69 210.78 155.69 C 207.54 155.97 204.25 155.78 201.00 155.81 C 167.33 155.82 133.65 155.79 99.98 155.83 C 98.63 155.75 97.02 155.87 95.76 155.31 C 94.33 154.44 93.27 152.86 92.16 151.63 Z" fill="#353a40" />
<path d="M 96.65 160.59 C 101.23 160.54 105.81 160.60 110.39 160.53 C 110.46 162.02 110.55 163.52 110.64 165.01 C 105.95 165.41 101.38 165.15 96.68 165.18 C 96.67 163.65 96.66 162.12 96.65 160.59 Z" fill="#353a40" />
<path d="M 197.68 160.56 C 202.28 160.59 206.89 160.59 211.49 160.56 C 211.46 162.12 211.43 163.68 211.39 165.25 C 206.82 165.16 202.26 165.15 197.69 165.24 C 197.67 163.68 197.67 162.12 197.68 160.56 Z" fill="#353a40" />
</svg>