<?xml version="1.0" encoding="UTF-8" standalone="no"?>
<!DOCTYPE svg PUBLIC "-//W3C//DTD SVG 1.1//EN" "http://www.w3.org/Graphics/SVG/1.1/DTD/svg11.dtd">
<svg xmlns="http://www.w3.org/2000/svg" version="1.1" viewBox="0 0 300 200" width="300.0pt" height="200.0pt">
<path d="M 0.00 0.00 L 300.00 0.00 L 300.00 200.00 L 0.00 200.00 L 0.00 0.00 Z" fill="#353a40" />
<path d="M 104.49 34.29 C 110.12 33.91 115.82 34.03 121.46 34.15 C 121.50 40.13 121.41 46.11 121.49 52.09 C 131.46 46.60 141.25 40.75 151.13 35.10 C 154.01 33.56 157.77 33.71 160.54 35.43 C 175.08 43.91 189.70 52.31 204.28 60.74 C 213.51 66.37 222.91 71.72 232.30 77.09 C 232.61 83.04 232.57 88.98 232.45 94.94 C 227.70 92.35 223.10 89.53 218.28 87.07 C 218.14 109.04 218.27 131.02 218.21 153.00 C 218.20 155.56 218.26 158.10 218.40 160.65 C 215.25 161.72 211.24 162.66 208.52 160.14 C 208.53 135.08 208.51 110.02 208.55 84.96 C 208.38 82.99 208.89 81.34 206.77 80.32 C 190.23 70.84 173.70 61.32 157.21 51.75 C 155.17 50.53 153.61 51.96 151.81 52.85 C 138.33 60.79 124.72 68.49 111.22 76.39 C 108.45 78.14 104.93 79.42 102.63 81.75 C 102.18 85.11 102.47 88.61 102.40 92.00 C 102.33 115.08 102.44 138.16 102.33 161.24 C 99.70 161.49 97.07 161.63 94.43 161.69 C 93.85 161.07 93.26 160.46 92.68 159.85 C 92.43 135.69 93.05 111.39 92.47 87.24 C 87.67 89.83 83.14 92.92 78.17 95.15 C 78.08 89.49 77.85 83.75 78.25 78.11 C 78.17 76.82 79.88 76.25 80.76 75.62 C 88.04 71.56 95.13 67.18 102.46 63.23 C 103.87 62.61 104.11 61.49 104.18 60.05 C 104.47 51.48 104.08 42.85 104.49 34.29 Z" fill="#fec107" />
<path d="M 159.95 73.39 C 160.45 76.02 160.71 78.59 160.61 81.28 C 164.92 83.43 169.57 83.24 173.89 85.08 C 174.63 85.41 175.11 85.99 175.35 86.82 C 174.91 90.29 173.72 93.33 172.59 96.61 C 168.17 96.62 164.42 94.34 159.99 94.34 C 156.77 94.33 152.78 93.82 150.35 96.37 C 148.35 98.25 147.89 101.04 150.02 103.05 C 157.13 107.96 165.08 108.98 171.85 114.19 C 180.54 120.16 180.64 134.19 173.22 141.22 C 169.51 145.05 165.04 146.20 160.28 148.16 C 160.17 151.17 160.64 154.63 159.62 157.49 C 157.47 158.95 154.13 158.30 151.63 158.58 C 148.22 156.24 149.68 153.08 149.49 149.52 C 144.14 146.87 137.89 146.77 132.37 144.35 C 132.51 140.04 133.25 135.87 135.68 132.23 C 143.08 134.87 150.73 137.61 158.58 134.80 C 162.41 133.31 163.81 128.40 160.49 125.59 C 153.74 120.74 145.25 119.85 138.54 114.45 C 130.65 108.66 130.51 96.04 137.40 89.40 C 140.89 85.64 145.25 84.89 149.55 82.59 C 149.94 79.58 149.88 76.58 150.59 73.60 C 153.70 73.11 156.81 73.22 159.95 73.39 Z" fill="#fec107" />
</svg>