<?xml version="1.0" encoding="UTF-8" standalone="no"?>
<!DOCTYPE svg PUBLIC "-//W3C//DTD SVG 1.1//EN" "http://www.w3.org/Graphics/SVG/1.1/DTD/svg11.dtd">
<svg xmlns="http://www.w3.org/2000/svg" version="1.1" viewBox="0 0 300 200" width="300.0pt" height="200.0pt">
<path d="M 0.00 0.00 L 300.00 0.00 L 300.00 200.00 L 0.00 200.00 L 0.00 0.00 Z" fill="#353a40" />
<path d="M 153.08 26.52 L 154.90 26.58 C 156.32 28.99 157.00 32.05 158.75 34.25 C 160.78 36.11 164.11 36.73 166.56 38.02 L 166.32 39.88 C 163.97 41.13 161.14 41.58 158.98 43.06 C 156.78 45.65 156.32 49.39 154.05 52.04 C 151.70 49.56 151.38 46.20 149.39 43.62 C 147.05 42.01 144.18 41.23 141.67 39.87 C 141.42 38.84 141.69 38.11 142.49 37.69 C 144.68 36.47 147.34 35.78 149.38 34.35 C 151.21 31.94 151.70 29.21 153.08 26.52 Z" fill="#fec107" />
<path d="M 154.02 36.15 C 155.07 37.01 156.03 37.96 156.89 39.01 C 156.02 40.05 155.06 40.99 154.00 41.84 C 152.96 40.98 152.03 40.06 151.18 39.01 C 152.03 37.97 152.98 37.01 154.02 36.15 Z" fill="#353a40" />
<path d="M 91.39 41.19 C 93.29 40.78 93.79 44.14 94.74 45.33 C 95.92 48.21 98.72 48.35 101.16 49.91 C 101.39 50.38 101.55 50.88 101.65 51.41 C 99.71 52.49 97.39 53.20 95.64 54.59 C 94.37 56.41 93.66 58.63 92.52 60.53 C 90.69 61.09 90.07 56.92 89.10 55.81 C 88.11 52.95 82.89 53.04 82.29 50.35 C 84.15 49.18 86.39 48.44 88.13 47.09 C 89.52 45.37 90.23 43.08 91.39 41.19 Z" fill="#fec107" />
<path d="M 224.73 40.75 C 226.03 42.59 226.72 45.11 228.21 46.80 C 230.17 48.34 232.44 49.69 234.65 50.85 C 232.51 52.22 229.83 53.14 227.98 54.89 C 226.57 56.71 225.79 59.03 224.63 61.02 C 223.18 58.73 222.20 56.48 220.50 54.49 C 218.69 52.99 216.36 52.10 214.37 50.84 C 216.01 49.97 217.55 48.95 219.13 47.98 C 222.02 46.61 222.35 43.09 224.73 40.75 Z" fill="#fec107" />
<path d="M 92.00 48.86 C 92.68 49.28 93.35 49.74 93.99 50.24 C 93.14 51.57 93.22 52.99 91.25 52.74 C 90.84 51.93 90.46 51.10 90.09 50.27 C 90.70 49.76 91.33 49.29 92.00 48.86 Z" fill="#353a40" />
<path d="M 224.13 49.04 C 227.04 48.98 225.86 51.51 225.05 53.12 C 224.09 52.43 223.18 51.71 222.32 50.94 C 222.88 50.26 223.49 49.63 224.13 49.04 Z" fill="#353a40" />
<path d="M 205.93 52.95 C 208.76 55.83 211.00 59.26 213.74 62.24 C 216.47 65.46 219.88 68.25 222.26 71.73 C 224.50 75.11 224.34 78.91 225.03 82.77 C 225.52 86.09 226.63 89.66 226.18 92.97 C 219.65 95.16 211.16 95.52 205.45 99.50 C 205.35 101.07 205.62 102.23 206.49 103.55 C 215.06 102.90 222.60 101.17 230.96 104.72 C 229.78 106.43 228.55 108.06 226.88 109.33 C 224.01 109.96 220.87 109.54 217.94 109.67 C 212.25 109.69 206.67 111.80 202.16 115.20 C 198.82 117.75 197.52 121.30 194.95 124.44 C 192.91 124.90 190.62 124.67 188.57 124.37 C 189.81 119.00 192.79 114.50 196.55 110.56 C 198.28 108.79 200.35 107.12 201.83 105.15 C 201.68 104.32 201.47 103.51 201.21 102.70 C 193.09 106.01 187.19 114.74 183.17 122.19 C 179.57 128.60 178.75 135.63 176.36 142.41 C 174.63 142.69 172.80 142.68 171.05 142.69 C 158.35 142.61 145.65 142.60 132.95 142.69 C 130.39 142.56 127.91 143.01 125.92 141.07 C 121.84 137.72 122.47 131.98 121.36 127.32 C 117.67 127.27 113.86 128.29 110.25 128.99 C 107.62 129.56 104.76 129.95 102.29 131.04 C 101.03 132.90 100.16 135.04 98.84 136.86 C 94.94 140.84 86.75 139.98 84.67 134.51 C 83.06 131.06 83.90 127.09 86.15 124.16 C 88.07 121.91 92.26 122.21 94.96 121.79 C 99.14 121.70 102.12 118.54 105.62 116.63 C 110.78 113.45 118.40 114.08 123.80 111.92 C 125.81 110.54 127.14 107.92 128.34 105.84 C 124.05 103.47 119.11 102.17 114.56 100.34 C 101.87 95.25 89.58 90.04 77.53 83.52 C 75.26 82.03 71.94 80.26 72.28 77.08 C 72.16 75.08 73.56 74.09 75.34 73.73 C 81.52 72.51 87.76 72.37 94.04 72.44 C 97.85 72.47 101.98 72.98 105.48 74.56 C 111.10 77.04 112.75 83.17 118.87 85.25 C 123.64 86.83 129.48 87.35 134.42 86.38 C 136.82 83.40 138.35 79.88 141.13 77.12 C 145.16 73.19 150.18 70.01 155.95 69.64 C 163.74 69.33 170.80 71.70 177.67 75.16 C 181.10 76.97 184.29 76.20 187.97 76.00 C 192.33 75.59 196.63 75.89 200.99 75.84 C 199.21 73.60 197.28 71.07 194.89 69.48 C 192.49 69.75 190.09 70.58 187.54 70.53 C 185.58 69.49 186.16 66.48 186.52 64.68 C 190.47 62.61 195.33 62.32 199.36 60.82 C 200.21 58.32 200.22 54.98 202.38 53.28 C 203.48 52.32 204.73 51.83 205.93 52.95 Z" fill="#fec107" />
<path d="M 98.56 105.64 C 101.86 106.41 106.29 107.81 108.17 110.84 C 105.67 113.32 102.76 115.88 99.55 117.36 C 96.44 117.70 93.20 116.00 89.99 116.62 C 83.57 117.69 78.79 123.57 78.57 129.99 C 78.33 134.95 81.12 139.96 85.23 142.67 C 91.71 146.72 101.01 144.50 104.65 137.70 C 105.80 135.87 106.49 133.26 108.13 131.87 C 111.22 130.54 114.82 130.12 118.14 129.81 C 118.99 139.96 112.49 149.23 103.68 153.72 C 98.84 156.14 93.40 156.17 88.12 155.67 C 80.41 154.67 73.47 149.02 69.74 142.36 C 66.92 137.26 66.84 131.79 67.38 126.13 C 68.31 118.13 74.40 110.95 81.47 107.44 C 86.52 104.73 93.04 104.87 98.56 105.64 Z" fill="#fec107" />
<path d="M 230.84 109.58 C 234.23 111.34 236.90 114.92 238.87 118.12 C 242.13 123.55 242.22 129.61 241.52 135.74 C 240.13 143.63 234.48 149.96 227.52 153.58 C 222.46 156.29 215.82 156.24 210.28 155.45 C 198.89 152.85 189.65 141.17 190.91 129.32 C 193.21 127.56 195.51 126.58 196.94 124.04 C 200.03 118.93 204.02 114.67 209.80 112.68 C 214.98 110.85 219.67 111.81 224.96 111.80 C 226.97 111.91 228.97 109.40 230.84 109.58 Z" fill="#fec107" />
<path d="M 211.35 117.29 C 217.82 114.73 225.94 117.62 229.00 123.97 C 232.58 130.82 229.88 139.49 223.04 143.06 C 216.14 146.79 207.50 143.97 203.88 137.09 C 199.72 129.70 203.51 120.19 211.35 117.29 Z" fill="#353a40" />
<path d="M 211.56 122.71 C 214.11 121.60 217.00 121.19 219.62 122.35 C 223.70 123.96 226.50 129.20 224.62 133.37 C 222.93 138.48 216.43 141.08 211.78 138.15 C 206.08 134.99 206.35 126.16 211.56 122.71 Z" fill="#fec107" />
</svg>